<svg xmlns="http://www.w3.org/2000/svg" viewBox="0 0 498.13 487.7"><defs><style>.cls-1{fill:#93ba85;}</style></defs><title>Ativo 4</title><g id="Camada_2" data-name="Camada 2"><g id="Camada_1-2" data-name="Camada 1"><path class="cls-1" d="M0,339.83c-.46-22.79,5.83-43,19.2-60.75,8.25-10.93,18.09-20.63,26.12-31.77,11.57-16.05,21.27-33,24-53,1.86-13.56-.37-26.61-5.46-39.24C58.14,140.74,49.42,128,43,114c-3.54-7.76-6-15.79-6.28-24.49A46.8,46.8,0,0,1,45,61.16C63.82,33.17,88.8,13,121.66,4c27.06-7.43,53.5-4.07,78.87,7.52a159.77,159.77,0,0,1,42.82,29.19c17.8,16.65,31.71,36.06,43.39,57.33,10.3,18.75,17.1,38.82,23.71,59,3.6,11,10,20.36,17.41,29.05,18.59,21.7,41.46,38.49,64.07,55.54,17.33,13.07,34.85,25.92,51.42,39.94,16.82,14.23,32.7,29.4,43.87,48.72,14.8,25.59,14.74,50.92-1.39,76-9.08,14.12-20.84,25.75-33.21,36.9-14.57,13.13-30.5,24.21-48.33,32.41a129.36,129.36,0,0,1-43.88,11.73c-22.07,1.81-43.17-2.72-64.09-8.77-18.74-5.42-36.77-12.93-55.41-18.64-20.23-6.19-40.76-10.93-62.15-10.19-11.65.4-23,3-34.34,5.29-26.86,5.33-53.24,4.15-78.34-7.68C43.73,436.77,26.72,420.37,15,398.52,5,380-.42,360.42,0,339.83Z"/></g></g></svg>