<svg xmlns="http://www.w3.org/2000/svg" viewBox="0 0 498.6 487.86"><defs><style>.cls-1{fill:#93ba85;}</style></defs><title>Ativo 1</title><g id="Camada_2" data-name="Camada 2"><g id="Camada_1-2" data-name="Camada 1"><path class="cls-1" d="M352.49,487.82c-21.17.13-39.38-4.11-57.34-9.56-20.8-6.31-41-14.49-61.87-20.57-19.83-5.78-40-8.63-60.67-7.37-10.24.63-20.13,3.56-30.2,5.3-21.45,3.72-42.88,3.63-63.65-3.39a109.51,109.51,0,0,1-49.63-33.58A120.84,120.84,0,0,1,.8,352.9c-3.24-29,3.2-55.7,22.35-78.35,8.54-10.1,17.54-19.8,25.12-30.67C59,228.45,67.61,212,70,193c1.63-12.87-.72-25.37-5.61-37.39-5-12.3-12-23.62-18-35.36-3.58-6.89-6.76-14-8.26-21.63-2.89-14.83.56-28.36,9.19-40.47C64.7,33.74,87.06,15.46,115.73,5.82,145.1-4,173.79-.94,201.7,11.9c21,9.65,38.79,23.69,54,40.81,18.6,20.88,32.74,44.63,43.26,70.56,4.33,10.66,7.9,21.57,11.3,32.55,3.86,12.45,11.26,22.76,19.68,32.43,15.42,17.71,34,31.89,52.49,46.08,17.13,13.13,34.42,26,51.41,39.37a284.58,284.58,0,0,1,35.66,32.51c11.56,12.75,21.54,26.58,26.39,43.49,6.63,23.09.44,43.6-13.4,62a208,208,0,0,1-78.24,64.19C387.28,484,369.27,488.35,352.49,487.82Z"/></g></g></svg>