<svg xmlns="http://www.w3.org/2000/svg" viewBox="0 0 419.97 367.46"><defs><style>.cls-1{fill:#93ba85;}</style></defs><title>Ativo 5</title><g id="Camada_2" data-name="Camada 2"><g id="Camada_1-2" data-name="Camada 1"><path class="cls-1" d="M50.47,219.82c.36-15.46,1.84-30.84,2.83-46.26,1.44-22.57-3.84-42.95-19.08-60.44C24.74,102.24,14.61,91.79,7.5,79,.09,65.69-2.9,51.89,3.5,37.41c5.32-12,14.26-21,25.72-27.37A77.12,77.12,0,0,1,72.07.16C83.24.86,92.58,6,101.35,12.43c12.2,9,21.18,21,30.78,32.51s15.5,25,23.22,37.52a120.43,120.43,0,0,0,33.58,35.75c2.25,1.57,4.58,3.05,6.71,4.77,10.86,8.77,22.83,9.74,36.07,6.54,14.56-3.51,29.08-7.19,43.7-10.46,17.27-3.86,34.21-2.73,50.66,4.08,9.57,4,19.22,7.77,28.68,12,11.18,5,19.81,13.33,27.84,22.33,14.5,16.26,21.18,36.26,27,56.65a337.44,337.44,0,0,1,9.36,41.62c1.85,12.22,1,24.35-.5,36.49a115.44,115.44,0,0,1-8.05,31.45c-6.61,15.48-18.77,25.55-32.59,34-11.41,7-24.24,9.46-37.27,9.72-13.51.27-25.94-4.2-37.4-11.52-7.6-4.85-14.3-10.87-21.76-15.89-19.67-13.22-40.88-22.53-64.56-25.4-11.62-1.41-23.33-2.09-35-3.29-18.64-1.92-37.1-4.82-55.07-10.38-15.59-4.82-30.63-11-44-20.43-17.28-12.24-28.85-28.46-32.19-49.85a8.32,8.32,0,0,1-.09-1.12Q50.47,224.69,50.47,219.82Z"/></g></g></svg>