<svg xmlns="http://www.w3.org/2000/svg" viewBox="0 0 424.27 198.21"><defs><style>.cls-1{fill:#51764c;}</style></defs><title>Ativo 6</title><g id="Camada_2" data-name="Camada 2"><g id="Camada_1-2" data-name="Camada 1"><path class="cls-1" d="M313.67,165.44c-23.89.14-47.6-3-71.47-3.67-24.92-.66-48.63,4-71.76,12.85-16.22,6.17-32.08,13.22-48.58,18.72-27.72,9.22-53.23,5.43-76.6-12-22.35-16.61-37.62-38.1-43.5-65.65C-2,97.92.47,80.71,7.85,64.17A116.29,116.29,0,0,1,54.67,11.06C74.09-.77,94.76-2.39,116.42,2.81,136.6,7.67,156,15.23,176,20.63a227.69,227.69,0,0,0,80.53,6.76c27.38-2.45,54.47-7.07,81.81-9.78,16.55-1.65,33.13-3,49.67-.19,11,1.85,21,5.66,27.95,15.09a42.61,42.61,0,0,1,8.26,24.13c1.22,37.49-13.1,68.12-42.07,91.72-12.5,10.18-27.75,13.88-43.41,15.94C330.4,165.39,322,165.32,313.67,165.44Z"/></g></g></svg>