<?xml version="1.0" encoding="UTF-8"?><svg xmlns="http://www.w3.org/2000/svg" xmlns:xlink="http://www.w3.org/1999/xlink" height="106.6" preserveAspectRatio="xMidYMid meet" version="1.1" viewBox="0.0 -0.0 90.2 106.6" width="90.2" zoomAndPan="magnify">
  <defs>
   <clipPath id="clip1">
    <path d="m15 3h75.211v103.58h-75.211z"/>
   </clipPath>
  </defs>
  <g id="surface1">
   <g id="change1_2"><path d="m20.734 23.648c1.145 1.973 2.735 3.672 4.438 5.164 0.859 0.739 1.769 1.426 2.734 1.985 0.961 0.535 2.016 1.012 3 0.965 0.989-0.024 1.656-0.793 2-1.785 0.332-0.989 0.508-2.114 0.457-3.176-0.051-1.082-0.308-2.16-0.625-3.239-0.312-1.074-0.676-2.171-1.035-3.246-0.367-1.066-0.773-2.113-1.297-3.089-0.527-0.969-1.176-1.883-1.898-2.747-1.469-1.703-3.102-3.335-4.676-4.9917-1.582-1.6563-3.199-3.2735-4.82-4.8906l-2.469-2.3907c-0.805-0.7773-1.688-1.6328-2.707-1.625l0.293-0.30075c0.156 1.9726 1.523 3.5704 2.457 5.4376 0.484 0.9218 0.863 1.9921 0.969 3.0507 0.129 1.0547 0.121 2.0785 0.211 3.0745 0.168 2 0.617 4.004 1.046 6.008 0.422 2 0.961 3.988 1.922 5.796zm-0.086 0.047c-0.976-1.812-1.578-3.793-2.171-5.757-0.559-1.969-1.196-3.93-1.497-6.004-0.152-1.039-0.171-2.0707-0.304-3.0512-0.129-0.9805-0.399-1.8867-0.856-2.7812-0.437-0.8946-0.98-1.7657-1.422-2.7188-0.449-0.9414-0.812-1.9844-0.843-3.0742l-0.008-0.31251 0.301 0.015629c0.66 0.027343 1.246 0.33984 1.707 0.71094 0.472 0.37114 0.859 0.80854 1.261 1.2109l2.411 2.4453c1.636 1.6016 3.269 3.207 4.941 4.7695 1.644 1.5976 3.383 3.0746 4.949 4.8046 0.778 0.863 1.512 1.793 2.09 2.828 0.582 1.031 1.031 2.117 1.43 3.207 0.742 2.16 1.648 4.324 1.761 6.77 0.028 0.597-0.007 1.222-0.113 1.808-0.074 0.586-0.219 1.184-0.43 1.766-0.234 0.574-0.511 1.18-1.046 1.625-0.512 0.461-1.219 0.707-1.875 0.699-1.332-0.015-2.422-0.629-3.391-1.277-0.973-0.668-1.836-1.449-2.656-2.262-1.602-1.66-3.09-3.422-4.239-5.422" fill="#040505"/></g>
   <g id="change1_3"><path d="m29.887 33.535c-0.782-0.93-1.703-1.711-2.688-2.402-0.976-0.707-2.011-1.328-3.078-1.871-2.098-1.176-4.453-1.711-6.762-2.578-1.148-0.43-2.3-0.891-3.375-1.524-1.086-0.613-2.074-1.371-3.011-2.156-1.8675-1.555-3.6839-3.238-5.9418-4.109l0.2344-0.219c0.9844 2.972 2.4336 5.765 4.0821 8.394 0.8363 1.309 1.7303 2.582 2.6993 3.789 0.965 1.2 2.043 2.286 3.32 3.016 1.281 0.727 2.778 1.105 4.293 1.496 0.766 0.191 1.528 0.391 2.305 0.672 0.785 0.289 1.504 0.684 2.176 1.129 2.675 1.801 4.816 4.168 6.777 6.621l-0.074 0.066c-2.207-2.218-4.528-4.379-7.145-5.984-0.652-0.395-1.336-0.73-2.035-0.953-0.711-0.227-1.484-0.383-2.242-0.567-1.52-0.359-3.129-0.71-4.582-1.554-1.473-0.828-2.586-2.082-3.563-3.336-0.965-1.27-1.8551-2.582-2.6442-3.961-1.6055-2.746-2.7734-5.711-3.7031-8.723l-0.1094-0.359 0.3438 0.144c2.2929 0.973 4.1484 2.637 6.1089 4.055 0.981 0.711 1.981 1.375 3.055 1.891 1.074 0.511 2.188 0.957 3.328 1.351 1.145 0.383 2.293 0.785 3.446 1.203 1.156 0.414 2.304 0.938 3.367 1.559 2.097 1.27 4.156 2.766 5.5 4.852l-0.082 0.058" fill="#040505"/></g>
   <g id="change1_4"><path d="m30.543 41.695c1.523-0.082 3.031-0.347 4.41-0.925 1.375-0.579 2.637-1.407 3.75-2.387 1.109-0.996 2.047-2.172 2.852-3.426 0.8-1.254 1.484-2.602 1.949-4.035 0.965-2.867 1.039-6.012 0.523-9.004-0.535-3.004-1.586-5.879-2.781-8.668l0.82-0.383c0.539 0.996 0.637 2.153 0.52 3.207-0.113 1.063-0.41 2.063-0.734 3.028-0.657 1.914-1.411 3.812-2.395 5.613-0.996 1.781-2.223 3.48-3.797 4.82-1.562 1.336-3.469 2.32-5.496 2.555l-0.016-0.098c1.942-0.496 3.657-1.586 5.051-2.957 1.395-1.379 2.512-3.019 3.379-4.785 0.899-1.758 1.598-3.617 2.27-5.496 0.332-0.93 0.636-1.859 0.757-2.797 0.129-0.934 0.063-1.871-0.343-2.672l0.82-0.379c1.129 2.875 1.941 5.891 2.316 8.957 0.395 3.055 0.383 6.176-0.312 9.227-0.723 3.039-2.418 5.887-4.848 7.906-2.371 2.082-5.625 3.164-8.707 2.797l0.012-0.098" fill="#040505"/></g>
   <g id="change1_5"><path d="m30.797 48.715c-1.375-0.164-2.695-0.703-3.902-1.379-1.207-0.688-2.336-1.488-3.45-2.274-2.199-1.609-4.515-3.003-7.187-3.242-1.328-0.152-2.707-0.238-4.078-0.422-1.371-0.183-2.723-0.464-4.0628-0.777-2.6758-0.648-5.2813-1.539-7.8008-2.668l0.31641-0.293c0.56249 1.34 1.6602 2.375 2.8867 3.133 1.2266 0.777 2.6133 1.273 4.0274 1.75 1.4062 0.477 2.8671 0.961 4.2501 1.617 1.387 0.645 2.703 1.418 3.98 2.223 2.551 1.617 4.934 3.426 7.524 4.871 2.574 1.441 5.367 2.601 8.371 2.789v0.102c-3.035 0.14-6.047-0.833-8.742-2.184-2.723-1.363-5.207-3.09-7.727-4.676-1.258-0.793-2.535-1.543-3.848-2.207-1.312-0.66-2.6948-1.16-4.1167-1.672-1.4063-0.527-2.8477-1.113-4.125-2.008-1.2578-0.886-2.3711-2.086-2.9102-3.566l-0.2031-0.562 0.51953 0.269c2.4141 1.254 5.0117 2.172 7.6797 2.711 1.332 0.281 2.6918 0.426 4.0428 0.527 1.348 0.118 2.715 0.047 4.11 0.2 1.39 0.121 2.828 0.492 4.066 1.175 1.254 0.653 2.383 1.473 3.477 2.301 2.156 1.676 4.253 3.469 6.921 4.164l-0.019 0.098" fill="#040505"/></g>
   <g id="change1_6"><path d="m38.387 68.848c0.758-3.469 1.051-7.004 0.836-10.516-0.047-0.984 0.261-1.934 0.699-2.754 0.437-0.828 0.996-1.562 1.574-2.25 1.168-1.367 2.418-2.644 3.711-3.875 2.605-2.433 5.371-4.668 7.859-7.195 1.243-1.262 2.434-2.578 3.496-3.988 1.051-1.422 1.997-2.915 2.778-4.485l0.578 0.289c-0.699 1.563-1.953 2.817-3.359 3.715-1.407 0.93-2.989 1.531-4.563 2-3.152 0.93-6.332 1.492-9.039 3.137-2.691 1.64-4.984 3.949-6.605 6.691-1.61 2.742-2.579 5.895-2.657 9.141h-0.097c-0.227-3.258 0.547-6.586 2.086-9.516 1.586-2.898 3.875-5.465 6.746-7.195 1.433-0.856 2.996-1.512 4.578-1.977 1.586-0.457 3.18-0.781 4.719-1.211 1.546-0.421 3.031-0.976 4.378-1.785 1.344-0.804 2.512-1.902 3.231-3.277l0.578 0.289c-1.781 3.133-4.133 5.859-6.621 8.391-2.481 2.554-5.074 4.992-7.531 7.543-1.231 1.265-2.453 2.539-3.586 3.882-1.129 1.297-2.207 2.766-2.176 4.403 0.105 3.582-0.391 7.191-1.516 10.57l-0.097-0.027" fill="#040505"/></g>
   <g id="change1_7"><path d="m33.191 59.684c-2.257-1.516-4.98-2.231-7.609-2.008-1.316 0.101-2.598 0.457-3.762 1.058-1.156 0.621-2.343 1.352-3.593 1.961-2.5 1.203-5.172 1.926-7.825 2.598-2.6637 0.633-5.3356 1.215-8.0036 1.797l0.0274-0.508c5.3867 1.461 10.945 2.188 16.496 2.106 1.39-0.004 2.777-0.063 4.16-0.168 1.387-0.106 2.773-0.227 4.129-0.485 2.687-0.484 5.43-1.398 7.316-3.508l0.082 0.063c-0.832 1.14-1.949 2.098-3.218 2.758-1.266 0.672-2.633 1.144-4.02 1.461-2.785 0.613-5.601 0.882-8.433 0.949-2.833 0.051-5.665-0.184-8.458-0.617-2.7964-0.438-5.5425-1.141-8.2105-2.059l-0.9922-0.344 1.0235-0.164c2.6953-0.429 5.3906-0.875 8.0112-1.625 2.629-0.715 5.165-1.738 7.54-3 1.207-0.594 2.3-1.387 3.582-2 1.277-0.617 2.687-0.965 4.097-1.039 2.824-0.105 5.657 0.867 7.723 2.695l-0.063 0.079" fill="#040505"/></g>
   <g id="change1_8"><path d="m52.992 76.477c0.051 0.175 0.219 0.195 0.375 0.128 0.156-0.062 0.301-0.175 0.418-0.3 0.211-0.239 0.352-0.637 0.531-0.953l1.02-2.02c0.68-1.336 1.297-2.707 1.867-4.082 1.129-2.75 1.91-5.656 1.879-8.602 0-2.945-0.738-5.898-1.57-8.789-0.797-2.898-1.696-5.839-1.637-8.933l0.414 0.258c-2.508 1.539-4.594 3.714-6.019 6.254-1.446 2.535-2.043 5.453-2.516 8.378-0.473 2.942-0.942 5.883-0.918 8.836 0.008 2.934 0.516 5.934 2.07 8.504l-0.082 0.059c-1.836-2.418-2.617-5.52-2.769-8.539-0.153-3.039 0.199-6.063 0.644-9.028 0.453-2.96 1.156-6.019 2.754-8.683 1.559-2.656 3.871-4.84 6.563-6.266l0.453-0.238-0.039 0.492c-0.223 2.969 0.519 5.949 1.41 8.813 0.851 2.879 1.93 5.754 2.07 8.867 0.149 3.113-0.769 6.148-2 8.918-0.613 1.398-1.359 2.722-2.113 4.031-0.379 0.656-0.781 1.297-1.184 1.938-0.222 0.312-0.351 0.644-0.664 0.953-0.152 0.132-0.328 0.242-0.531 0.297-0.102 0.023-0.215 0.039-0.324-0.008-0.114-0.043-0.18-0.16-0.199-0.258l0.097-0.027" fill="#040505"/></g>
   <g id="change1_9"><path d="m37.531 68.898c-2.89-0.367-5.769-0.808-8.648-0.832-1.438-0.035-2.875 0.032-4.278 0.274-1.402 0.25-2.761 0.621-4.097 1.156-1.336 0.531-2.711 1.109-4.172 1.43-1.453 0.34-2.93 0.426-4.391 0.465-2.9216 0.078-5.8434-0.118-8.7028 0.343l0.0703-0.394c2.9648 1.508 5.9609 2.988 9.0975 3.945 1.563 0.488 3.168 0.817 4.785 0.926 1.617 0.113 3.246-0.02 4.871-0.242 1.618-0.25 3.246-0.543 4.864-0.946l4.867-1.085c3.18-0.848 6.781-0.891 9.094-3.465l0.074 0.066c-0.531 0.649-1.145 1.238-1.848 1.723-0.707 0.48-1.496 0.836-2.301 1.093-1.617 0.508-3.203 0.934-4.824 1.364-3.242 0.824-6.418 1.82-9.777 2.304-3.34 0.555-6.887 0.239-10.078-0.882-3.2229-1.082-6.1331-2.782-9.0237-4.43l-0.5625-0.32 0.6328-0.075c2.9258-0.336 5.8516-0.132 8.7424-0.316 1.441-0.109 2.879-0.301 4.246-0.707 1.371-0.383 2.652-1.039 4.016-1.586 2.726-1.219 5.792-1.543 8.718-1.395 2.949 0.184 5.821 0.774 8.645 1.489l-0.02 0.097" fill="#040505"/></g>
   <g id="change1_10"><path d="m46.469 73.98c-1.391-0.183-2.758 0.161-4.039 0.657-1.285 0.5-2.555 1.097-3.676 1.863-1.152 0.742-2.074 1.699-2.797 2.871-0.375 0.578-0.73 1.188-1.148 1.777-0.426 0.582-0.887 1.133-1.375 1.661-0.965 1.054-2.055 1.968-3.153 2.851l-3.312 2.606c-1.094 0.879-2.211 1.734-3.356 2.55-1.129 0.836-2.304 1.614-3.519 2.332l-0.086-0.375c3.269 0.129 6.551-0.085 9.738-0.671 3.195-0.575 6.285-1.633 9.094-3.207 2.812-1.579 5.433-3.567 8.086-5.5 2.652-1.938 5.34-3.833 8.031-5.723l0.063 0.078c-2.489 2.152-5.032 4.242-7.606 6.293-2.566 2.047-5.125 4.145-8.055 5.785-2.925 1.649-6.183 2.629-9.464 3.149-3.293 0.507-6.629 0.48-9.915 0.195l-0.671-0.055 0.589-0.316c1.227-0.66 2.395-1.426 3.54-2.231 1.124-0.828 2.207-1.715 3.277-2.617 2.082-1.867 4.234-3.699 6.086-5.726 0.933-1.02 1.656-2.137 2.449-3.329 0.773-1.203 1.863-2.289 3.098-3.031 1.246-0.746 2.566-1.269 3.918-1.707 1.355-0.406 2.839-0.644 4.222-0.277l-0.019 0.097" fill="#040505"/></g>
   <g id="change1_11"><path d="m79.238 85.402c0.649-1.461 0.942-3.031 0.938-4.597-0.012-1.567-0.254-3.16-0.371-4.75-0.305-3.172-0.766-6.305-1.918-9.239-1.153-2.941-2.774-5.73-4.59-8.359-1.777-2.656-3.656-5.246-5.504-7.852l0.684-0.261c0.382 2.601 0.742 5.215 0.968 7.851 0.243 2.629 0.321 5.305 0.149 7.942-0.129 2.629-0.367 5.234-0.086 7.808 0.254 2.555 0.98 5.133 2.582 7.227l-0.074 0.066c-0.907-0.965-1.637-2.109-2.164-3.34-0.516-1.234-0.86-2.539-1.082-3.859-0.387-2.652-0.305-5.332-0.211-7.949 0.097-2.617 0.066-5.207-0.11-7.82-0.172-2.61-0.461-5.219-0.722-7.832l-0.161-1.61 0.844 1.344c1.707 2.719 3.383 5.449 5.152 8.113 0.434 0.676 0.895 1.332 1.348 1.992l1.289 2.032c0.863 1.351 1.68 2.746 2.36 4.222 0.699 1.469 1.156 3.059 1.476 4.649 0.305 1.593 0.442 3.211 0.555 4.808 0.105 1.602 0.219 3.2 0.137 4.832-0.079 1.637-0.575 3.25-1.399 4.629l-0.09-0.047" fill="#040505"/></g>
   <g id="change1_12"><path d="m76.156 89.262c-3.398-1.121-6.918-1.793-10.461-1.887-1.765-0.086-3.539 0.004-5.293 0.211-1.754 0.219-3.5 0.504-5.203 0.976-1.703 0.465-3.406 0.981-5.023 1.708-1.633 0.695-3.211 1.542-4.801 2.375-1.594 0.828-3.242 1.562-4.93 2.179-1.691 0.61-3.429 1.098-5.195 1.465l0.098-0.445c3.152 2.023 6.832 3.035 10.535 3.406 3.715 0.398 7.476 0.148 11.211-0.223 3.726-0.433 7.426-1.113 11.035-2.156 3.601-1.055 7.117-2.449 10.445-4.246l0.051 0.086c-3.172 2.078-6.645 3.707-10.262 4.918-3.617 1.195-7.367 2-11.152 2.431-3.781 0.44-7.625 0.58-11.434 0.11-3.8-0.451-7.582-1.678-10.711-3.92l-0.496-0.355 0.594-0.094c3.512-0.543 6.934-1.731 10.039-3.481 1.578-0.836 3.09-1.804 4.723-2.59 1.613-0.812 3.308-1.472 5.051-1.972 3.48-1.031 7.148-1.352 10.757-1.145 3.614 0.235 7.18 1.09 10.457 2.555l-0.035 0.094" fill="#040505"/></g>
   <g id="change1_13"><path d="m35.109 95.387c3.348 1.218 6.825 1.668 10.325 1.722 1.75 0.059 3.523 0.043 5.277-0.187 1.754-0.238 3.477-0.668 5.164-1.203 3.367-1.082 6.687-2.301 10.074-3.391 3.395-1.039 6.883-1.945 10.449-2.223l0.016 0.102c-3.441 0.895-6.781 2.008-10.141 3.137-3.367 1.078-6.761 2.179-10.261 2.906-1.746 0.371-3.496 0.691-5.25 0.992-1.754 0.305-3.524 0.613-5.324 0.699-3.579 0.121-7.29-0.617-10.372-2.464l0.043-0.09" fill="#040505"/></g>
   <g id="change1_14"><path d="m76.512 83.613c-0.125-2.625-0.453-5.148-0.887-7.695-0.184-1.273-0.375-2.566-0.719-3.824-0.34-1.254-0.828-2.465-1.363-3.653-1.086-2.363-2.188-4.73-3.09-7.203-0.867-2.496-1.383-5.105-1.574-7.722l0.098-0.02c0.816 2.5 1.539 4.977 2.48 7.379 0.879 2.43 1.859 4.852 2.598 7.375 0.379 1.258 0.746 2.512 1.164 3.75 0.414 1.242 0.89 2.473 1.222 3.754 0.602 2.562 0.739 5.285 0.172 7.867l-0.101-0.008" fill="#040505"/></g>
   <g id="change1_15"><path d="m19.863 92.883c5.703-0.922 10.739-3.793 15.457-6.969 4.797-3.113 9.36-6.703 14.129-9.852 0.547-0.425 1.024-0.925 1.293-1.515 0.266-0.586 0.336-1.262 0.348-1.953-0.028-1.399-0.074-2.875-0.039-4.309 0.062-2.89 0.25-5.781 0.664-8.644 0.406-2.864 1.027-5.696 1.781-8.481 0.383-1.394 0.82-2.769 1.293-4.133 0.223-0.691 0.504-1.339 0.633-2.027 0.133-0.676 0.109-1.426-0.36-1.969l0.071-0.07c0.558 0.523 0.676 1.359 0.601 2.078-0.062 0.742-0.281 1.449-0.461 2.137-0.386 1.383-0.695 2.781-1.019 4.172-0.625 2.793-1.109 5.609-1.481 8.437-0.382 2.828-0.652 5.672-0.781 8.527l-0.109 4.309c-0.039 0.738-0.153 1.527-0.531 2.231-0.379 0.707-0.969 1.234-1.575 1.652-2.5 1.5-4.906 2.992-7.175 4.777-2.301 1.723-4.469 3.614-6.809 5.313-2.34 1.695-4.848 3.179-7.512 4.351-2.66 1.145-5.515 1.938-8.406 2.039l-0.012-0.101" fill="#040505"/></g>
   <g id="change1_16"><path d="m2.6602 71.062c3.039 0.25 6.039 0.836 8.9848 1.376 1.468 0.281 2.96 0.515 4.468 0.421 1.508-0.089 2.992-0.406 4.473-0.746 2.961-0.695 5.941-1.269 8.934-1.777 3-0.457 6.011-0.852 9.058-1.047l0.016 0.102c-2.938 0.816-5.91 1.441-8.895 1.996-2.992 0.508-5.996 0.945-9.019 1.265-1.512 0.172-3.02 0.383-4.543 0.532-1.516 0.164-3.075 0.222-4.61 0.078-1.5309-0.157-3.0192-0.508-4.4918-0.864-1.4766-0.371-2.9454-0.753-4.3946-1.238l0.0196-0.098" fill="#040505"/></g>
   <g clip-path="url(#clip1)" id="change1_1">
    <path d="m15.965 3.4766c1.762 2.3476 3.344 4.8281 4.844 7.3474 1.488 2.528 2.906 5.094 4.433 7.582 0.75 1.27 1.574 2.418 2.328 3.746 0.36 0.657 0.676 1.321 1.004 1.969 0.16 0.336 0.332 0.613 0.496 0.984 0.18 0.379 0.274 0.743 0.383 1.11 0.699 2.922 0.93 5.844 1.231 8.765 0.246 2.926 0.429 5.852 0.636 8.774 0.196 2.914 0.379 5.836 0.758 8.726 0.383 2.887 0.953 5.766 1.992 8.485 0.528 1.355 1.16 2.668 1.918 3.906 0.774 1.231 1.676 2.379 2.672 3.438 2.043 2.074 4.469 3.75 7.063 5.074 2.601 1.32 5.347 2.328 8.14 3.183 5.575 1.719 11.364 2.809 16.914 4.856 2.754 1.051 5.481 2.277 7.942 3.965 2.472 1.656 4.703 3.746 6.406 6.211 1.711 2.457 2.988 5.16 4.09 7.89 0.515 1.342 1.215 2.822 0.937 4.522-0.129 0.85-0.679 1.65-1.398 2.11-0.367 0.24-0.789 0.41-1.254 0.45-0.461 0.05-0.969-0.06-1.371-0.34l-0.149-0.1-0.046-0.16c-1.668-5.53-4.305-10.81-8.09-15.2-3.785-4.383-8.637-7.805-13.938-10.219l0.039-0.09c2.707 1.105 5.317 2.461 7.75 4.101 2.422 1.657 4.657 3.602 6.621 5.793 3.95 4.383 6.754 9.715 8.571 15.315l-0.199-0.27c0.41 0.28 1.011 0.21 1.515-0.12 0.504-0.34 0.859-0.85 0.949-1.45 0.223-1.26-0.351-2.61-0.894-3.955-1.094-2.691-2.352-5.316-4.004-7.668-1.613-2.375-3.711-4.383-6.086-6.008-2.363-1.652-5.012-2.875-7.711-3.937-5.418-2.121-11.176-3.328-16.762-5.172-2.793-0.918-5.539-2.004-8.144-3.383-2.606-1.355-5.055-3.07-7.106-5.191-1.023-1.063-1.949-2.219-2.75-3.461-0.781-1.25-1.441-2.578-1.992-3.946-1.105-2.738-1.773-5.632-2.23-8.539-0.903-5.824-1.141-11.691-1.688-17.511-0.265-2.899-0.48-5.848-1.121-8.637-0.094-0.34-0.18-0.684-0.316-0.969-0.125-0.305-0.332-0.656-0.481-0.98-0.328-0.664-0.633-1.325-0.972-1.957-0.329-0.629-0.731-1.227-1.122-1.86l-1.121-1.898c-2.953-5.082-5.445-10.391-8.765-15.223l0.078-0.0584" fill="#040505"/>
   </g>
   <g id="change1_17"><path d="m5.1094 18.766c2.6679 4.031 6.4256 7.05 10.387 9.707 1.965 1.359 3.996 2.664 6.082 3.859l6.336 3.5c1.063 0.582 2.066 1.336 3.102 1.18 1.05-0.125 2.007-0.856 2.992-1.535 1.961-1.372 3.887-2.793 5.363-4.579 1.461-1.761 2.399-3.996 2.938-6.277 0.554-2.297 0.668-4.703 0.566-7.109l0.102-0.012c0.425 2.379 0.519 4.848 0.097 7.277-0.441 2.411-1.285 4.813-2.879 6.797-1.59 1.957-3.652 3.356-5.66 4.684-0.992 0.637-2.062 1.433-3.453 1.547-0.691 0.054-1.387-0.176-1.926-0.5-0.554-0.325-1.027-0.68-1.527-1.008-1.996-1.336-4.086-2.539-6.207-3.68-2.125-1.133-4.301-2.187-6.379-3.445s-4-2.777-5.75-4.477c-1.7305-1.715-3.2461-3.679-4.2735-5.879l0.0899-0.05" fill="#040505"/></g>
   <g id="change1_18"><path d="m30.457 52.316c-2.539-1.05-4.957-2.312-7.285-3.73-1.149-0.734-2.262-1.539-3.426-2.238-1.168-0.703-2.398-1.297-3.664-1.762-1.273-0.465-2.551-0.809-3.871-1.074-1.316-0.27-2.6798-0.465-4.0196-0.86-2.6641-0.804-5.1758-2.144-7.2187-3.988l0.0546-0.082c2.3985 1.313 4.875 2.363 7.4532 3.043 2.5315 0.699 5.3865 1.082 7.8205 2.461 1.226 0.637 2.394 1.344 3.601 1.98 1.207 0.637 2.461 1.188 3.68 1.797 2.406 1.282 4.727 2.719 6.922 4.364l-0.047 0.089" fill="#040505"/></g>
   <g id="change1_19"><path d="m2.9102 64.105c2.6679 0.782 5.457 0.633 8.1288 0.09 2.691-0.507 5.289-1.461 7.988-2.168 2.696-0.695 5.508-1.168 8.317-0.996 1.39 0.11 2.765 0.309 4.14 0.321 1.356 0.027 2.782-0.2 3.77-1.043 1.019-0.848 1.324-2.18 1.387-3.516 0.082-1.344-0.047-2.77 0.324-4.227 0.18-0.726 0.535-1.445 1.012-2.027 0.472-0.59 1.027-1.074 1.589-1.516 1.125-0.863 2.27-1.613 3.407-2.421 4.582-3.141 9.203-6.223 13.925-9.137l0.055 0.082c-4.375 3.445-8.851 6.711-13.363 9.926-1.125 0.797-2.297 1.582-3.391 2.379-1.086 0.8-2.008 1.718-2.324 2.96-0.348 1.239-0.305 2.633-0.441 4.043-0.071 0.707-0.196 1.438-0.485 2.125-0.285 0.688-0.758 1.309-1.351 1.754-1.215 0.926-2.746 0.996-4.121 0.969-1.403-0.047-2.778-0.285-4.153-0.324-2.762-0.141-5.449 0.641-8.07 1.445-2.633 0.805-5.297 1.684-8.082 2.125-2.7579 0.442-5.7228 0.395-8.297-0.746l0.0352-0.098" fill="#040505"/></g>
  </g>
 </svg>