<svg xmlns="http://www.w3.org/2000/svg" viewBox="0 0 188.28 180.51"><defs><style>.cls-1{fill:#93ba85;}</style></defs><title>Ativo 3</title><g id="Camada_2" data-name="Camada 2"><g id="Camada_1-2" data-name="Camada 1"><path class="cls-1" d="M49.32,14c8.67.44,17.27.37,25.26-3.74A128.86,128.86,0,0,0,86.1,4c14.31-9.29,35.13-1.26,40.44,11.61,2.51,6.07,5.37,12.11,11.67,15.56,5.41,3,11.31,3.78,17.24,4.55,15.17,1.95,25.16,7.95,27.79,24.83,1.16,7.45.15,14.66-1.44,21.88-1.16,5.24-2.27,10.49-3.55,15.7-2.73,11.07-1,21.49,4.06,31.58,2.91,5.77,6,11.5,6,18.32a21.25,21.25,0,0,1-20.7,21.25c-10.83.5-21.44-1-31.93-3.18A62.45,62.45,0,0,0,97.23,170c-10.55,4.5-21.32,8.46-32.81,10.19C53.94,181.79,41.33,177,36,168.85a22.86,22.86,0,0,1-3.63-12.79,96.32,96.32,0,0,1,.92-13.79c2.23-15.22-2.92-27.25-14.66-37C13.35,100.89,7.71,96.78,3.83,91-2.78,81.12-.7,70.28,9,63.5c.92-.65,1.89-1.23,2.85-1.8,6.95-4.13,8.26-7.19,6.32-15.22-.87-3.64-2-7.22-2.85-10.87C13.69,28.24,16.8,21.69,23.43,18A30.7,30.7,0,0,1,39.2,14C42.57,14,45.94,14,49.32,14Z"/></g></g></svg>